<?xml version="1.0" encoding="UTF-8"?>
<svg id="a" xmlns="http://www.w3.org/2000/svg" version="1.1" viewBox="0 0 29.62 29.61">
  <!-- Generator: Adobe Illustrator 29.8.3, SVG Export Plug-In . SVG Version: 2.1.1 Build 3)  -->
  <defs>
    <style>
      .st0 {
        fill: #6d86c1;
      }
    </style>
  </defs>
  <path class="st0" d="M14.82,4.37h-3.26c-.35,0-.69,0-1.03.1-1.53.43-2.52,1.4-2.86,2.95-.32,1.44.26,2.94,1.39,3.88.28.24.28.23,0,.45-1.97,1.57-1.96,4.58.01,6.14.27.21.26.21,0,.42-1.17.96-1.68,2.19-1.46,3.71.28,1.88,2.09,3.61,4.5,3.2,2.64-.44,4.05-3.09,2.93-6.02-.15-.39.07-.76.37-1.06.07-.07-.05-.29.07-.36.11-.07.19.06.27.12,1.03.76,2.19,1.01,3.46.65,1.43-.4,2.52-1.61,2.8-3.06.29-1.52-.25-2.79-1.48-3.78-.19-.15-.2-.22,0-.38,1.21-.96,1.71-2.21,1.49-3.75-.24-1.73-1.84-3.18-3.6-3.22-1.2-.03-2.41,0-3.61,0M27.02,29.61H2.63c-.07-.02-.15-.05-.22-.07-1.45-.37-2.41-1.76-2.41-3.21C.03,17.55,0,8.78,0,0h26.47c.64,0,1.21.19,1.74.54.75.5,1.18,1.22,1.39,2.09v24.38c-.14.53-.35,1.03-.71,1.47-.5.6-1.15.95-1.89,1.13"/>
  <path class="st0" d="M14.2,9.42c0,.39,0,.78.01,1.16,0,.24-.07.34-.31.33-.82-.01-1.63,0-2.45,0-1.31-.02-2.55-1.08-2.66-2.39-.16-1.78,1.36-3.23,3.23-2.93.52.08,1.05.07,1.57-.01.5-.07.63,0,.63.34-.02,1.17,0,2.33-.02,3.5"/>
  <path class="st0" d="M15.44,8.22v-2.34c0-.25.09-.34.34-.33.82.01,1.64,0,2.45,0,1.35.02,2.51,1.08,2.63,2.34.16,1.71-1.02,2.82-2.23,2.98-.5.07-1.02.02-1.53.03-.44,0-.89-.01-1.33,0-.25,0-.34-.07-.33-.33.01-.79,0-1.58,0-2.37"/>
  <path class="st0" d="M14.21,14.83v2.34c0,.25-.08.34-.33.33-.85-.01-1.69,0-2.54,0-1.36-.02-2.48-1.17-2.56-2.53-.09-1.55,1.19-2.86,2.73-2.83.78.02,1.56.01,2.34,0,.27,0,.37.08.37.36-.02.78,0,1.56,0,2.34"/>
  <path class="st0" d="M14.21,20.4c-.03.43.06.96-.05,1.48-.26,1.27-1.39,2.19-2.68,2.19s-2.39-.91-2.65-2.17c-.34-1.65,1-3.18,2.68-3.18h2.39c.23,0,.33.07.32.31-.01.42,0,.85,0,1.37"/>
  <path class="st0" d="M20.86,14.83c0,1.52-1.19,2.67-2.74,2.67s-2.69-1.2-2.68-2.74c0-1.48,1.22-2.63,2.76-2.62,1.49,0,2.67,1.2,2.66,2.69"/>
</svg>