<?xml version="1.0" encoding="UTF-8"?>
<svg id="a" xmlns="http://www.w3.org/2000/svg" version="1.1" viewBox="0 0 69.94 15.41">
  <!-- Generator: Adobe Illustrator 29.8.3, SVG Export Plug-In . SVG Version: 2.1.1 Build 3)  -->
  <defs>
    <style>
      .st0 {
        fill: #6d86c1;
      }
    </style>
  </defs>
  <path class="st0" d="M6.99,8.69c-.67.85-1.74,1.21-2.73.91-.1-.03-.25-.23-.23-.31.33-1.19.67-2.39,1.05-3.57.08-.24.28-.45.46-.64.52-.57,1.16-.77,1.69-.52.64.3.63.91.67,1.4-.05,1.06-.3,1.96-.92,2.73M10.24,3.73c-.49-.98-1.49-1.51-2.57-1.36-.87.12-1.6.5-2.19,1.15-.11.12-.23.24-.41.44.05-.51.08-.92.12-1.36h-2.55C1.76,6.87.88,11.12,0,15.41h2.73c.29-1.32.58-2.62.87-3.93.21.02.35.03.49.05,3.32.53,6.05-1.56,6.49-4.92.13-1,.12-1.96-.34-2.88"/>
  <path class="st0" d="M22.8,8.66c-.29.34-.71.65-1.13.8-.74.26-1.43-.18-1.59-.95-.25-1.2.04-2.31.77-3.28.5-.67,1.22-.91,1.85-.69.57.21.88.79.88,1.79-.05.74-.18,1.63-.76,2.33M24.28,2.68c-1.77-.74-4.27-.24-5.56,1.19-1.28,1.42-1.72,3.12-1.39,4.99.25,1.39,1.1,2.27,2.44,2.61,1.17.3,2.35.23,3.47-.25,2.21-.95,2.93-2.82,3.06-4.6.02-2.17-.69-3.38-2.03-3.94"/>
  <path class="st0" d="M51.82,8.61c-.35.57-.82,1.12-1.37,1.49-1.12.74-2.24.15-2.41-1.18-.15-1.18.06-2.31.6-3.37.76-1.47,2.12-2.16,3.75-1.93.26.04.51.09.82.15-.38,1.67-.49,3.38-1.4,4.85M52.27,2.36c-1.36-.07-2.64.22-3.68,1.15-1.77,1.61-2.35,3.67-1.95,5.98.26,1.49,1.29,2.21,2.75,2.11.89-.06,1.53-.56,2.05-1.25.15-.2.3-.41.52-.71-.05.66-.1,1.17-.14,1.72h1.34c.56-2.9,1.11-5.76,1.68-8.71-.9-.11-1.74-.25-2.57-.3"/>
  <path class="st0" d="M65.37,5.94c-1.14.61-2.39.61-3.68.62.28-1.68,1.66-3,3.07-2.97.68,0,1.22.34,1.34.81.16.59-.11,1.2-.74,1.54M67.56,4.24c-.15-.92-.78-1.47-1.66-1.73-.73-.22-1.45-.2-2.18,0-2.57.7-4,3.59-3.67,6.06.24,1.83,1.09,2.75,2.72,3.01.88.14,1.75.03,2.59-.29.78-.3,1.03-.77.89-1.61-.6.21-1.19.48-1.82.63-1.83.44-3.09-.62-2.94-2.47.86-.08,1.7-.13,2.53-.24.91-.12,1.79-.35,2.56-.9.84-.61,1.13-1.48.97-2.46"/>
  <path class="st0" d="M44.2,5.93c-.75.45-2.44.72-3.7.59.22-1.61,1.65-2.97,3.08-2.94.7.02,1.2.33,1.32.84.14.6-.11,1.15-.71,1.51M46.35,4.12c-.18-.85-.96-1.51-1.95-1.7-1.15-.22-2.2.04-3.16.67-1.97,1.3-2.94,4.22-2.17,6.45.33.97.99,1.61,1.97,1.89,1.25.36,2.47.19,3.63-.39.13-.07.26-.24.3-.39.09-.33.13-.68.18-1.02-.68.24-1.29.52-1.93.67-1.67.38-2.81-.45-2.92-2.04-.03-.37.08-.51.46-.5.42,0,.84-.03,1.26-.07,1.16-.12,2.31-.28,3.31-.95.88-.58,1.26-1.59,1.04-2.63"/>
  <path class="st0" d="M17.99,2.5c-.18.85-.36,1.7-.53,2.55-1.76-.39-2.71.11-3.23,1.82-.39,1.29-.61,2.63-.91,3.94-.04.19-.09.37-.14.57h-2.74c.6-2.94,1.2-5.85,1.8-8.79h2.62c-.06.53-.11,1.03-.18,1.67.8-1.27,1.64-2.26,3.3-1.76"/>
  <path class="st0" d="M60.74,2.54c-.1.45-.18.82-.27,1.25-.62,0-1.23,0-1.84,0-.27,0-.39.06-.45.36-.32,1.62-.67,3.23-1.01,4.84-.04.17-.04.35-.04.53,0,.64.35.93.99.8.32-.07.64-.18,1.03-.29-.08.38-.13.72-.23,1.05-.03.11-.17.24-.28.26-.6.07-1.22.2-1.81.14-.7-.07-1.2-.67-1.14-1.42.08-1.03.27-2.05.46-3.06.19-1.05.44-2.09.67-3.19h-1.42c0-.11,0-.17.02-.24.2-.99.2-1.01,1.2-1,.38,0,.56-.11.56-.49,0-.1.05-.2.07-.31C57.44.82,58.04.23,59.05,0c-.17.84-.33,1.66-.5,2.54h2.2-.01Z"/>
  <path class="st0" d="M33.61,3.48c-.1.24-.12.51-.18.8-.38-.19-.72-.4-1.08-.54-1.14-.41-2.33-.08-3.13.9-.94,1.15-1.28,2.5-1.07,3.95.2,1.42,1.26,2.07,2.65,1.69.53-.15,1.04-.4,1.61-.64-.07.37-.12.74-.22,1.09-.04.13-.15.28-.28.35-1,.52-2.07.73-3.16.38-1.38-.44-1.96-1.54-2.09-2.89-.16-1.71.27-3.28,1.38-4.62,1.22-1.46,3.34-1.99,5.13-1.32.44.16.65.36.44.84"/>
  <path class="st0" d="M39.61,2.52c-.08.5-.15.99-.23,1.48l-.11.04c-1.33-.41-1.95-.19-2.77.98-.71,1.02-.99,2.19-1.24,3.38-.2.99-.43,1.98-.64,2.97h-1.43c.43-2.06.86-4.08,1.27-6.1.16-.77.28-1.55.39-2.33.04-.29.15-.4.44-.38.33.02.66,0,1.04,0-.07.61-.13,1.16-.22,1.88.85-1.35,1.7-2.48,3.49-1.92"/>
  <path class="st0" d="M68.97,4.23c-.48.02-.87-.35-.87-.85s.33-.84.8-.86c.49-.02.89.36.89.84,0,.44-.38.84-.82.86M68.97,2.35c-.56-.02-1.05.45-1.05,1.02s.47,1.05,1.03,1.04c.55,0,.99-.45.99-1.02s-.42-1.01-.97-1.04"/>
  <path class="st0" d="M68.7,3.23v-.36s.36-.07.36.06-.13.28-.13.28h-.23v.02ZM69.14,3.51c-.16-.23-.12-.23-.08-.28.1-.13.21-.26.15-.35-.11-.16-.45-.18-.62-.09v1.09h.09c0-.14.01-.27.02-.51h.14c.19.2.32.35.46.5h.12c-.12-.15-.2-.25-.28-.37"/>
</svg>