<?xml version="1.0" encoding="UTF-8"?>
<svg id="a" xmlns="http://www.w3.org/2000/svg" version="1.1" viewBox="0 0 29.11 29.11">
  <!-- Generator: Adobe Illustrator 29.8.3, SVG Export Plug-In . SVG Version: 2.1.1 Build 3)  -->
  <defs>
    <style>
      .st0 {
        fill: #6d86c1;
      }
    </style>
  </defs>
  <path class="st0" d="M13,1.38H1.84q-.44,0-.44.44v21.93c0,.24,0,.48.03.71.32,2.01,2.08,3.27,3.85,3.27,7.36-.02,14.71,0,22.07,0,.37,0,.39-.02.39-.39V5.23c0-.31-.02-.62-.1-.93-.4-1.7-1.99-2.94-3.7-2.93-3.65,0-7.29,0-10.94,0M29.11,4.49v24.6c-.11,0-.23.02-.34.02H5.05c-.21,0-.41-.02-.62-.05-2.55-.39-4.43-2.57-4.43-5.15V.4c0-.14,0-.27.02-.4h24.6c1.08.18,2.04.61,2.84,1.36.91.85,1.44,1.9,1.64,3.13"/>
  <path class="st0" d="M17.84,16.19v-1.96c0-.22-.08-.33-.29-.37-1.23-.24-2.26.3-2.56,1.47-.12.45-.14.91-.07,1.38.18,1.34,1.23,2.09,2.56,1.81.27-.06.39-.16.38-.45-.02-.62,0-1.25,0-1.87M19.81,14.12v4.63c.02.57.02.58-.52.78-1.29.49-2.6.66-3.95.3-1.49-.4-2.4-1.62-2.46-3.17-.04-.96.1-1.85.67-2.64.76-1.05,1.83-1.52,3.09-1.6.28-.02.57-.01.85,0,.34.02.34.04.34-.32v-2.61q0-.43.42-.44h1.14c.39,0,.41.02.41.42v4.63h0v.02Z"/>
  <path class="st0" d="M11.24,14.89v4.6c0,.28-.09.4-.37.39-.41-.01-.81,0-1.22,0-.28,0-.38-.11-.38-.39v-9.12c0-.45.04-.49.48-.49h1.11c.34,0,.37.04.37.38v4.63"/>
</svg>