<?xml version="1.0" encoding="UTF-8"?>
<svg id="a" xmlns="http://www.w3.org/2000/svg" version="1.1" viewBox="0 0 29.13 29.12">
  <!-- Generator: Adobe Illustrator 29.8.3, SVG Export Plug-In . SVG Version: 2.1.1 Build 3)  -->
  <defs>
    <style>
      .st0 {
        fill: #6d86c1;
      }
    </style>
  </defs>
  <path class="st0" d="M16.08,27.72h11.19q.44,0,.44-.44V5.35c0-.23,0-.46-.03-.68-.31-2.04-2.09-3.3-3.83-3.3-7.37.02-14.73,0-22.1,0-.37,0-.39.02-.39.38v22.1c0,.31.02.62.1.93.45,1.74,1.92,2.92,3.73,2.92,3.63.01,7.25,0,10.88,0M0,24.61V.25c0-.2.04-.25.25-.25h24.36l.11.03c2.59.4,4.42,2.72,4.41,5.18-.02,7.81,0,15.62,0,23.44,0,.31-.15.46-.46.46H5.12c-1.32,0-2.46-.49-3.43-1.36-.94-.84-1.46-1.91-1.67-3.15"/>
  <path class="st0" d="M10.73,11.2c-.38,1.33-.79,2.58-1.2,3.82-.06.2.07.19.2.19h1.99c.25,0,.29-.07.22-.3-.4-1.21-.79-2.43-1.21-3.72M14.38,19.46c-.23,0-.45-.01-.68,0-.23.01-.34-.08-.42-.29-.24-.71-.5-1.41-.73-2.12-.08-.24-.2-.32-.45-.32-.9.01-1.8.01-2.7,0-.26,0-.39.08-.47.33-.21.7-.46,1.38-.68,2.08-.07.23-.19.34-.44.33-.39-.02-.78,0-1.16,0s-.41-.05-.29-.39c.64-1.84,1.29-3.68,1.93-5.52.35-1,.7-2,1.05-3,.09-.26.15-.53.18-.8.01-.18.08-.26.26-.27h1.93c.22,0,.28.16.33.33.39,1.11.78,2.21,1.18,3.32.69,1.93,1.38,3.87,2.06,5.8.03.08.05.16.08.24.08.2.01.29-.2.29h-.79,0Z"/>
  <path class="st0" d="M19.53,14.95h0c.39-.01.78-.01,1.16-.01.13,0,.23-.03.26-.2.09-.62-.43-1.3-1.05-1.37-.92-.09-1.52.35-1.73,1.25-.05.22.02.33.25.33h1.11M20.08,16.21h-1.56c-.37,0-.43.09-.34.45.18.76.73,1.26,1.51,1.4.76.13,1.49.04,2.2-.22.33-.12.35-.11.36.25v.82c0,.17-.07.27-.22.32-1.38.51-2.78.6-4.14-.05-1.01-.48-1.47-1.38-1.67-2.43-.26-1.36,0-2.6.92-3.66.59-.69,1.37-1.02,2.28-1.05.34-.01.68-.01,1.02.04,1.62.24,2.3,1.69,2.38,2.73.02.32.02.64-.01.96-.03.28-.16.38-.44.39-.76.05-1.51.04-2.27.04"/>
</svg>



