<?xml version="1.0" encoding="UTF-8"?>
<svg id="a" xmlns="http://www.w3.org/2000/svg" version="1.1" viewBox="0 0 29.11 29.11">
  <!-- Generator: Adobe Illustrator 29.8.3, SVG Export Plug-In . SVG Version: 2.1.1 Build 3)  -->
  <defs>
    <style>
      .st0 {
        fill: #6d86c1;
      }
    </style>
  </defs>
  <path class="st0" d="M1.4,12.98v10.68c0,.26,0,.53.03.79.31,2,2.08,3.27,3.85,3.27,7.36-.02,14.71,0,22.07-.01.37,0,.38-.02.38-.39V5.23c0-.31-.03-.62-.1-.93-.37-1.59-1.9-2.94-3.84-2.93-7.31.03-14.62,0-21.93,0-.31,0-.47.16-.47.47v11.14M29.11,4.49v24.6c-.11,0-.23.02-.34.02H5.05c-.21,0-.41-.02-.62-.05-2.55-.39-4.43-2.57-4.43-5.15V.4c0-.14,0-.27.02-.4h24.6c1.08.18,2.04.61,2.84,1.36.91.85,1.44,1.9,1.64,3.13"/>
  <path class="st0" d="M12.81,11.63l-.06.07c-.39,1.23-.77,2.45-1.16,3.68-.06.19.02.23.19.23h2.04c.2,0,.26-.06.19-.25-.4-1.23-.8-2.46-1.21-3.72M16.45,19.85c-.22,0-.44-.01-.65,0-.25.01-.38-.09-.46-.32-.24-.71-.49-1.41-.73-2.12-.07-.22-.19-.29-.41-.29-.93,0-1.86.01-2.78,0-.23,0-.34.08-.41.29-.22.7-.47,1.4-.69,2.1-.07.24-.21.33-.46.33h-1.14c-.37,0-.42-.07-.3-.42.68-1.96,1.37-3.91,2.05-5.87.3-.87.6-1.73.91-2.6.1-.28.16-.56.19-.86.02-.17.09-.23.25-.23h1.93c.23,0,.28.15.34.32.45,1.26.89,2.51,1.34,3.77.65,1.82,1.29,3.64,1.94,5.45.14.4.11.44-.31.44h-.62"/>
  <path class="st0" d="M20.72,16.16v3.29c0,.34-.04.38-.37.38h-1.25c-.23,0-.35-.1-.34-.34v-6.67c0-.21.09-.32.3-.32h1.36c.23,0,.31.11.31.34v3.32"/>
  <path class="st0" d="M20.78,10.34c0,.61-.43,1.04-1.03,1.04s-1.06-.46-1.06-1.06.49-1.07,1.1-1.06c.59,0,.99.44.99,1.08"/>
</svg>



