<?xml version="1.0" encoding="UTF-8"?>
<svg id="a" xmlns="http://www.w3.org/2000/svg" version="1.1" viewBox="0 0 29.75 29.74">
  <!-- Generator: Adobe Illustrator 29.8.3, SVG Export Plug-In . SVG Version: 2.1.1 Build 3)  -->
  <defs>
    <style>
      .st0 {
        fill: #6d86c1;
      }
    </style>
  </defs>
  <path class="st0" d="M28.06,28.39H5.52c-1.01,0-1.93-.26-2.71-.92-1.01-.84-1.45-1.94-1.45-3.25V1.68c0-.26.06-.34.34-.34h22.56c2.1,0,3.66,1.27,4.07,3.29.06.28.06.58.06.87v22.53c0,.26-.06.34-.33.34M29.61,4.06C29.06,1.92,27.37.39,25.18.05l-.13-.05H0c0,8.11.03,16.22,0,24.33,0,2.52,1.79,5.05,4.81,5.4.21.02.43.01.64.01h24.3V4.71c-.05-.21-.09-.43-.15-.64"/>
  <path class="st0" d="M13.58,13.19c-.05,1.06-.56,1.62-1.69,1.78-.5.07-1.02.01-1.54.01v-3.75c.66.04,1.31.02,1.93.14.88.17,1.35.9,1.3,1.83M15.15,11.58c-.61-1.19-1.68-1.68-2.94-1.74-1.17-.06-2.34,0-3.51-.02-.26,0-.33.08-.32.33.01,1.53,0,3.06,0,4.59v4.93c0,.24.08.33.32.32.31-.01.62,0,.93,0,.47,0,.71-.23.71-.7v-2.8h.36c.86,0,1.72-.04,2.54-.33,2.01-.7,2.87-2.72,1.92-4.57"/>
  <path class="st0" d="M21.38,13.92c0,.24-.08.3-.31.29-.69-.03-1.32.13-1.86.58-.2.17-.29.36-.29.63v4.18c0,.27-.07.39-.36.37-.43-.02-.85-.02-1.28,0-.26.01-.33-.08-.33-.34v-7.09h1.48c.08,0,.2.12.23.2.08.24.11.49.17.74.18-.16.35-.33.53-.48.5-.4,1.08-.58,1.72-.62.21-.01.29.06.29.28-.01.41-.02.83,0,1.25"/>
</svg>



