<?xml version="1.0" encoding="UTF-8"?>
<svg id="a" xmlns="http://www.w3.org/2000/svg" version="1.1" viewBox="0 0 29.12 29.12">
  <!-- Generator: Adobe Illustrator 29.8.3, SVG Export Plug-In . SVG Version: 2.1.1 Build 3)  -->
  <defs>
    <style>
      .st0 {
        fill: #6d86c1;
      }
    </style>
  </defs>
  <path class="st0" d="M13,1.4H1.84q-.44,0-.44.44v21.93c0,.24,0,.48.03.71.32,2.01,2.08,3.27,3.85,3.27,7.36-.02,14.71,0,22.07,0,.37,0,.39-.02.39-.39V5.25c0-.31-.02-.62-.1-.93-.4-1.7-1.99-2.94-3.7-2.93-3.65,0-7.29,0-10.94,0M29.11,4.51v24.35c0,.21-.05.26-.26.26H4.5l-.17-.04c-2.47-.42-4.33-2.6-4.33-5.12V.43q0-.43.44-.43h23.61c1.3,0,2.42.48,3.38,1.34.95.85,1.48,1.92,1.69,3.17"/>
  <path class="st0" d="M10.67,14.6c.13,0,.27.01.4,0,1.33-.12,2.06-.66,1.95-2.08-.06-.71-.49-1.26-1.23-1.45-.49-.13-.99-.13-1.49-.12-.33,0-.37.04-.37.38v2.52c0,.81-.1.74.75.74M7.96,14.49v-4.57c0-.39.03-.42.42-.42,1,0,2.01-.03,3.01,0,.93.03,1.82.23,2.56.86,1.52,1.29,1.52,4.36-.92,5.31-.82.32-1.66.42-2.53.4-.61-.01-.57-.05-.57.56v2.5c0,.26-.09.39-.36.38h-1.28c-.26,0-.34-.11-.34-.37v-4.66"/>
  <path class="st0" d="M16.03,18.31v-.54c0-.29.08-.33.32-.17.44.3.92.49,1.44.56.34.05.68.07,1.01-.05.23-.08.43-.21.46-.48.03-.28-.09-.49-.32-.65-.2-.14-.42-.25-.65-.34-.47-.18-.93-.38-1.34-.67-.64-.45-.95-1.08-.89-1.85.07-.89.53-1.52,1.36-1.83,1.01-.38,2.04-.31,3.06.02.19.06.28.19.28.38v1.05c0,.23-.11.28-.31.16-.53-.31-1.11-.46-1.73-.45-.18,0-.34.05-.49.12-.41.21-.46.66-.11.95.23.19.49.31.77.42.46.17.91.37,1.32.65,1.39.91,1.32,2.84-.13,3.65-.75.42-1.57.45-2.4.38-.43-.04-.85-.15-1.26-.31-.29-.11-.42-.29-.38-.6.02-.13,0-.26,0-.4"/>
</svg>



